<svg id="svg4485" xmlns="http://www.w3.org/2000/svg" xmlns:xlink="http://www.w3.org/1999/xlink" viewBox="0 0 989.33 694"><defs><style>.cls-1,.cls-17,.cls-67{fill:none;}.cls-2{fill:#ffce00;}.cls-3{fill:#ce4627;}.cls-4{fill:#111a1e;}.cls-5{fill:#ffd8bd;}.cls-6{fill:#e8b592;}.cls-7{fill:#1f3247;}.cls-8{fill:#0d1a26;}.cls-9{fill:#fff;}.cls-10{fill:#edb894;}.cls-11{fill:#ba825b;}.cls-12{fill:#d84a4a;}.cls-13{fill:#720f0f;}.cls-14{fill:#1d1d1b;}.cls-15{fill:#a51902;}.cls-16{fill:#ffac73;}.cls-17{stroke:#c00;stroke-miterlimit:10;stroke-width:2px;}.cls-18{fill:#ed0606;}.cls-19{fill:#2e4c66;}.cls-20{fill:#00739b;}.cls-21{fill:#24aace;}.cls-22{fill:#182938;}.cls-23{fill:#dda783;}.cls-24{fill:#ec6523;}.cls-25{fill:#f7c6a4;}.cls-26{fill:#bc3500;}.cls-27{opacity:0.15;}.cls-28{fill:#aa1400;}.cls-29{fill:#ff4c06;}.cls-30{fill:red;}.cls-31{fill:#ffc000;}.cls-32{fill:#00ff42;}.cls-33{fill:#00fcff;}.cls-34{fill:#003cff;}.cls-35{fill:#8400ff;}.cls-36{fill:#ff00ba;}.cls-37,.cls-39,.cls-40{stroke:#000;}.cls-37,.cls-67{stroke-linejoin:round;}.cls-37{stroke-width:8px;}.cls-38{fill:url(#linear-gradient);}.cls-39{fill:url(#linear-gradient-2);}.cls-40{fill:url(#linear-gradient-3);}.cls-41{fill:#9cdafb;}.cls-42{fill:#f90;}.cls-43{fill:#36f;}.cls-44{fill:#969696;}.cls-45{fill:url(#linear-gradient-4);}.cls-46{fill:url(#linear-gradient-5);}.cls-47{fill:url(#linear-gradient-6);}.cls-48{fill:url(#linear-gradient-7);}.cls-49{fill:url(#linear-gradient-8);}.cls-50{fill:url(#linear-gradient-9);}.cls-51{fill:url(#linear-gradient-10);}.cls-52{fill:url(#linear-gradient-11);}.cls-53{fill:url(#linear-gradient-12);}.cls-54{fill:url(#linear-gradient-13);}.cls-55{fill:url(#linear-gradient-14);}.cls-56{fill:url(#linear-gradient-15);}.cls-57{fill:url(#linear-gradient-16);}.cls-58{fill:url(#linear-gradient-17);}.cls-59{fill:url(#linear-gradient-18);}.cls-60{fill:url(#linear-gradient-19);}.cls-61{fill:url(#linear-gradient-20);}.cls-62{fill:url(#linear-gradient-21);}.cls-63{fill:url(#linear-gradient-22);}.cls-64{fill:url(#linear-gradient-23);}.cls-65{clip-path:url(#clip-path);}.cls-66{fill:#ffa300;}.cls-67{stroke:#21428f;stroke-linecap:round;stroke-width:3px;stroke-dasharray:0 6;}.cls-68{isolation:isolate;font-size:17.94px;font-family:ArialMT, Arial;}.cls-69{clip-path:url(#clip-path-2);}.cls-70{fill:#b50202;}.cls-71{fill:#0223b5;}.cls-72{fill:#05b502;}.cls-73{fill:#02acb5;}.cls-74{font-size:59px;font-family:EdwardianScriptITC, Edwardian Script ITC;}</style><linearGradient id="linear-gradient" x1="184.01" y1="1044.4" x2="210.86" y2="988.33" gradientTransform="translate(423.48 -2.98) scale(0.22)" gradientUnits="userSpaceOnUse"><stop offset="0" stop-color="#f90"/><stop offset="1" stop-color="#8d5500"/></linearGradient><linearGradient id="linear-gradient-2" x1="160.93" y1="1079.35" x2="152.03" y2="1131.85" gradientTransform="translate(423.48 -2.98) scale(0.22)" gradientUnits="userSpaceOnUse"><stop offset="0" stop-color="#fff"/><stop offset="1" stop-color="#cecece"/></linearGradient><linearGradient id="linear-gradient-3" x1="63.1" y1="1029.57" x2="88.86" y2="1046" xlink:href="#linear-gradient-2"/><linearGradient id="linear-gradient-4" x1="360.66" y1="1067.55" x2="436.24" y2="981.68" gradientTransform="translate(423.45 -3.18) scale(0.22)" gradientUnits="userSpaceOnUse"><stop offset="0" stop-color="#36f"/><stop offset="1" stop-color="#00279c"/></linearGradient><linearGradient id="linear-gradient-5" x1="329.4" y1="952.84" x2="339.54" y2="886.67" gradientTransform="translate(423.45 -3.18) scale(0.22)" xlink:href="#linear-gradient"/><linearGradient id="linear-gradient-6" x1="349.44" y1="831.77" x2="461.48" y2="792.37" gradientTransform="translate(423.45 -3.18) scale(0.22)" gradientUnits="userSpaceOnUse"><stop offset="0" stop-color="#9cdafb"/><stop offset="1" stop-color="#1aa9f6"/></linearGradient><linearGradient id="linear-gradient-7" x1="179.58" y1="907.04" x2="237.73" y2="811.07" gradientTransform="translate(423.45 -3.18) scale(0.22)" gradientUnits="userSpaceOnUse"><stop offset="0" stop-color="#9cdafb"/><stop offset="1" stop-color="#fff"/></linearGradient><linearGradient id="linear-gradient-8" x1="299.68" y1="1124.61" x2="273.33" y2="1013.18" gradientTransform="translate(423.45 -3.18) scale(0.22)" gradientUnits="userSpaceOnUse"><stop offset="0" stop-color="#36f"/><stop offset="1" stop-color="#fff"/></linearGradient><linearGradient id="linear-gradient-9" x1="334.02" y1="1167.92" x2="409.98" y2="1142.92" gradientTransform="translate(423.45 -3.18) scale(0.22)" gradientUnits="userSpaceOnUse"><stop offset="0" stop-color="#969696"/><stop offset="1" stop-color="#5a5a5a"/></linearGradient><linearGradient id="linear-gradient-10" x1="500.39" y1="952.03" x2="510.43" y2="975.01" gradientTransform="translate(423.19 -2.57) scale(0.22)" gradientUnits="userSpaceOnUse"><stop offset="0" stop-color="#f90"/><stop offset="1" stop-color="#fff"/></linearGradient><linearGradient id="linear-gradient-11" x1="513.88" y1="1036.69" x2="498.23" y2="1039.37" gradientTransform="translate(423.19 -2.57) scale(0.22)" xlink:href="#linear-gradient-2"/><linearGradient id="linear-gradient-12" x1="534.82" y1="1057.06" x2="520.88" y2="1055.63" gradientTransform="translate(423.19 -2.57) scale(0.22)" xlink:href="#linear-gradient-2"/><linearGradient id="linear-gradient-13" x1="479.2" y1="1003.68" x2="487.95" y2="1025.14" gradientTransform="translate(423.19 -2.57) scale(0.22)" xlink:href="#linear-gradient-2"/><linearGradient id="linear-gradient-14" x1="476.95" y1="931.64" x2="459.35" y2="885.92" gradientTransform="translate(448.15 29.27) scale(0.2 0.18)" xlink:href="#linear-gradient-10"/><linearGradient id="linear-gradient-15" x1="340.42" y1="598.54" x2="288.68" y2="597.17" gradientTransform="matrix(0.17, -0.03, 0, 0.17, 432.67, 71.96)" xlink:href="#linear-gradient-10"/><linearGradient id="linear-gradient-16" x1="347.09" y1="468.1" x2="278.9" y2="466.13" gradientTransform="translate(416.42 63.91) scale(0.22)" xlink:href="#linear-gradient-10"/><linearGradient id="linear-gradient-17" x1="283.4" y1="953.17" x2="280.92" y2="892.7" gradientTransform="translate(433.78 12.55) scale(0.18 0.19)" gradientUnits="userSpaceOnUse"><stop offset="0" stop-color="blue"/><stop offset="1" stop-opacity="0"/></linearGradient><linearGradient id="linear-gradient-18" x1="289.68" y1="989.16" x2="287.2" y2="928.69" gradientTransform="translate(434.02 16.87) scale(0.13 0.18)" xlink:href="#linear-gradient-17"/><linearGradient id="linear-gradient-19" x1="453.91" y1="892.42" x2="436.31" y2="846.7" gradientTransform="translate(432.71 2.22) scale(0.2)" xlink:href="#linear-gradient-10"/><linearGradient id="linear-gradient-20" x1="524.26" y1="884.26" x2="453.93" y2="815.32" gradientTransform="translate(423.15 -3.24) scale(0.22)" xlink:href="#linear-gradient-10"/><linearGradient id="linear-gradient-21" x1="379.51" y1="1357.58" x2="374.42" y2="1197.23" gradientTransform="translate(422.77 -2.76) scale(0.22)" gradientUnits="userSpaceOnUse"><stop offset="0" stop-color="red"/><stop offset="1" stop-color="red" stop-opacity="0"/></linearGradient><linearGradient id="linear-gradient-22" x1="394.68" y1="1342.03" x2="363.46" y2="1185.96" gradientTransform="translate(422.77 -2.76) scale(0.22)" gradientUnits="userSpaceOnUse"><stop offset="0"/><stop offset="1" stop-opacity="0"/></linearGradient><linearGradient id="linear-gradient-23" x1="385.21" y1="1256.23" x2="367.25" y2="1146.59" gradientTransform="translate(415.39 -18.85) scale(0.24)" gradientUnits="userSpaceOnUse"><stop offset="0" stop-color="#ff0"/><stop offset="1" stop-color="#ff0" stop-opacity="0"/></linearGradient><clipPath id="clip-path"><rect class="cls-1" x="-376.53" y="-622.33" width="1741.41" height="1741.41"/></clipPath><clipPath id="clip-path-2"><rect class="cls-1" x="-155.96" y="51.27" width="797.15" height="797.15"/></clipPath></defs><title>diplome</title><g id="g4493"><path id="path4629" class="cls-2" d="M965.33,20H24V674H965.33Zm24,674H0V0H989.33Z"/><g id="g5578"><path id="path4633" class="cls-3" d="M102.25,101.56C92.5,106.89,99,112.7,91.36,118.77s-22.23.54-26.68,4.43-1.63,13.58,11.13,14.39c0,0-8.72,2.91-5.8,9.38s22.68,3.58,21.81,3.71c-7.94,1.14,8,3.81,28.07,3.66s51.05-18.37,55.69-33,9-23.9,3.94-33.64S154.7,71.93,148.09,72.16s-45.84,29.4-45.84,29.4"/><path id="path4637" class="cls-4" d="M90,264.73c.08-.11,6.26,1.14,6.81,1.17a52.29,52.29,0,0,0,9.19-.38c7.53-1,15.53-3.91,22.42-7.07,11.74-5.39,19.57-16,29.28-24.07,4.88-4.07,10.35-7.46,16.55-9.07,6.63-1.71,13.63-5.29,17.37-11.68,0,0-46.17,3.77-63.11,11.2S90,264.66,90,264.73"/><path id="path4641" class="cls-3" d="M116.23,267.13s-1.59,14.23.73,19.8,5.72,6.34,8.66,4.48,4.95-6.65,5.72-13.3-.49-13.3-3.49-14.69-9.25-2.94-11.62,3.71"/><path id="path4645" class="cls-5" d="M101.18,253.67s6.44,9.13,15,13.92c0,0,.73,9,4.9,9.67s8-9.67,6-14.15-7.08-9.9-10.17-17-15.78,7.58-15.78,7.58"/><path id="path4649" class="cls-3" d="M175.66,240.94A45.8,45.8,0,0,0,186,239.29c4.15-1.4,7.09-2.32,8.32,0s-.15,7-4.17,9.28-16.71,5.57-20.88,3.71-3.18-10.15-1.28-11.34,7.7,0,7.7,0"/><path id="path4653" class="cls-5" d="M184.87,215.9s1.23,13.55-5.73,25c0,0,4-.31,4.15.36.38,1.62-3.85,2.91-9.41,2.85s-6-1-6-2.7,1.09-11-1.23-19.33,13.18-16.3,18.26-6.22"/><path id="path4657" class="cls-5" d="M187.64,149.42a11.42,11.42,0,0,0,1.63-8.35s-8.36-3.94-7.89-6.73,6-.69,9.28,0c0,0,.23-13.92,3.48-14.15s3.94,9.74,3.94,9.74,4.64-11.83,8.59-11.13-1.39,13-1.39,13,6.49-5.57,9.74-4-4.87,10.68-11.37,14.62c0,0,1.86,18.33-2.09,24.83s-13.92-17.87-13.92-17.87"/><path id="path4661" class="cls-6" d="M199,134.71l-.25.26q-.31.28-.6.6c-.11.13-.22.27-.35.4a5,5,0,0,0-.33.47,2.16,2.16,0,0,0-.34.51l-.31.53c-.09.19-.17.38-.26.56a3.83,3.83,0,0,0-.22.56c0,.19-.16.37-.19.54a4.42,4.42,0,0,1-.14.52c-.11.33-.1.61-.17.83a1.73,1.73,0,0,0-.08.35l-.2-.29a2.51,2.51,0,0,1-.38-.87,4.5,4.5,0,0,1-.11-.64,2.89,2.89,0,0,1,0-.72,2.47,2.47,0,0,1,.17-.76c.09-.24.19-.49.29-.74a3.79,3.79,0,0,1,.46-.67,3.51,3.51,0,0,1,.54-.55,3,3,0,0,1,.57-.43c.21-.11.41-.19.59-.27a2.71,2.71,0,0,1,.93-.19,2,2,0,0,1,.35,0"/><path id="path4665" class="cls-5" d="M78.6,178.89a22.4,22.4,0,0,0-9.52,10s9.52,1.86,8.12,5.34-8.35,2.55-8.35,2.55,1.63,12.76-2.78,13.69S60.5,199.3,60.5,199.3s-6.73,10.21-9,8.82,0-10.21,0-10.21-7.19,5.8-9.28,3.48S51,189.1,54.93,186.31c0,0,3.48-16.24,12.53-24.36S78.6,178.89,78.6,178.89"/><path id="path4669" class="cls-7" d="M135.21,147.1s-41.53-10.9-73.09,16c0,0,2.09,16.7,21.81,28.31,0,0,7.2-10.68,16-17.17,0,0-16.7,25.75-14.38,45.24s4.87,39,4.41,45.24c0,0,24.82-9.28,36.88-22.5s25.53-18.33,34.58-18.1,25,.46,32.24-10c0,0-20.41-8.12-31.09-16.93s-11.81-21.89-11.81-21.89,9.92,13.53,30.59,11.44,28.32-16.24,28.32-16.24S196,150.39,188.8,144.92c0,0-6.49,9.84-14.85,13.09s-21.34-4.41-25.75-7.66-9.11-2.45-13-3.25"/><path id="path4673" class="cls-8" d="M98.91,175.33a18.64,18.64,0,0,1,1.12-1.88c.19-.27.38-.57.61-.87a8.3,8.3,0,0,1,.77-.9l.87-.91c.3-.31.62-.61.93-.92l1-.79c.34-.27.69-.51,1-.74a7,7,0,0,1,1-.63c.33-.18.65-.34,1-.48.59-.28,1.1-.48,1.46-.62l.57-.2-.42.45c-.27.27-.66.65-1.14,1.07-.24.21-.51.44-.79.66s-.55.51-.86.77-.6.54-.92.79l-1,.79-.92.85-.93.79c-.3.27-.63.47-.89.73s-.52.48-.76.69a20.43,20.43,0,0,1-1.72,1.35"/><path id="path4677" class="cls-8" d="M151,176.55l-.35-.55a12.41,12.41,0,0,1-.81-1.53c-.14-.32-.3-.68-.44-1.06s-.27-.8-.39-1.22a13.11,13.11,0,0,1-.34-1.34l-.24-1.4c0-.48-.08-1-.12-1.42a10.59,10.59,0,0,1,0-1.38,6.78,6.78,0,0,1,.08-1.29c.08-.41.11-.79.17-1.14a12,12,0,0,1,.43-1.67l.21-.62.08.65a9.39,9.39,0,0,0,.12,1.69c0,.35.06.72.08,1.11s.08.81.11,1.23.06.87.11,1.31.1.9.14,1.35.13.9.19,1.34.12.88.19,1.31.1.84.2,1.22.13.75.19,1.1c.1.69.25,1.25.31,1.66s.09.65.09.65"/><path id="path4681" class="cls-8" d="M107.27,172.81l-.54,1.84a19.19,19.19,0,0,0-.54,2.11c-.09.41-.19.84-.3,1.3s-.14,1-.22,1.46-.18,1-.23,1.59-.1,1.12-.14,1.71a13.71,13.71,0,0,0-.08,1.81v1.88a36.92,36.92,0,0,0,.3,3.93c.11,1.34.42,2.67.66,4a38.64,38.64,0,0,0,1.09,3.92c.39,1.28.91,2.49,1.38,3.69.26.58.55,1.14.81,1.7a14.27,14.27,0,0,0,.83,1.6l.84,1.49c.28.48.6.91.87,1.35s.55.85.82,1.23l.81,1.06a18.52,18.52,0,0,0,1.37,1.7l1.25,1.44-1.46-1.24a15.21,15.21,0,0,1-1.58-1.53l-.94-1c-.31-.36-.62-.77-1-1.18a10.67,10.67,0,0,1-1-1.3l-1-1.48a14.75,14.75,0,0,1-1-1.6c-.3-.56-.62-1.13-.91-1.72a32.48,32.48,0,0,1-1.53-3.78c-.5-1.31-.8-2.69-1.17-4a21.89,21.89,0,0,1-.63-4.17,39.78,39.78,0,0,1-.18-4.08c0-.66.07-1.31.11-1.94a16.33,16.33,0,0,1,.19-1.85c.09-.6.17-1.18.26-1.75s.25-1.09.36-1.6.23-1,.37-1.47l.43-1.29a15.6,15.6,0,0,1,.79-2.06l.8-1.74"/><path id="path4685" class="cls-8" d="M108.21,184.26l.18.49c.13.32.27.81.55,1.38a20,20,0,0,0,2.69,4.49,25.68,25.68,0,0,0,5.36,5,29,29,0,0,0,3.55,2.13,30.84,30.84,0,0,0,3.93,1.66,42.24,42.24,0,0,0,4.14,1.14c1.38.34,2.77.52,4.1.76a34.19,34.19,0,0,0,3.91.41c1.25.08,2.43.17,3.52.21,2.19.11,4,.14,5.31.17l2,.06-2,.23c-1.28.13-3.11.32-5.32.38a35.58,35.58,0,0,1-3.58,0c-1.27-.06-2.61-.13-4-.23a40.4,40.4,0,0,1-4.25-.67c-1.44-.26-2.87-.74-4.3-1.15a32.53,32.53,0,0,1-4.11-1.79,30.86,30.86,0,0,1-3.64-2.34,23.39,23.39,0,0,1-3-2.71,22.7,22.7,0,0,1-2.26-2.82,17.79,17.79,0,0,1-2.31-4.86,12.44,12.44,0,0,1-.36-1.46l-.11-.51"/><path id="path4689" class="cls-8" d="M152.24,168.9l1.35.59c.42.2.95.4,1.56.63s1.28.49,2,.71,1.58.47,2.45.7,1.82.37,2.77.58a18.5,18.5,0,0,0,3,.37l3.11.17a18.91,18.91,0,0,0,3.11-.12l3-.33a19,19,0,0,0,2.78-.55c.88-.23,1.71-.41,2.46-.65s1.45-.45,2-.68,1.15-.4,1.57-.59l1.36-.56-1.23.82a14.28,14.28,0,0,1-1.47.84,16.22,16.22,0,0,1-2,1,21.32,21.32,0,0,1-2.46.91c-.88.31-1.85.51-2.84.75a27.41,27.41,0,0,1-3.11.45c-1.06.13-2.15.13-3.24.16a19.58,19.58,0,0,1-3.25-.22c-1.07-.15-2.09-.33-3.09-.51a16.84,16.84,0,0,1-2.83-.8,21.24,21.24,0,0,1-2.44-.95,18.65,18.65,0,0,1-2-1,14.4,14.4,0,0,1-1.46-.87l-1.22-.83"/><path id="path4693" class="cls-8" d="M159.44,176l1,.74,1.14.86.69.53c.25.17.54.33.82.51.57.35,1.2.72,1.84,1.14a7.52,7.52,0,0,0,1,.56l1.1.54a16.14,16.14,0,0,0,2.34,1l2.46,1,2.56.68a19.47,19.47,0,0,0,2.5.52l1.21.21a7.51,7.51,0,0,0,1.16.15c.77,0,1.49.11,2.16.17l1,.08H186l-1.22.27-1.42.29-.88.16a5.88,5.88,0,0,0-1,.06l-2.23.08a6.2,6.2,0,0,1-1.22-.05l-1.27-.14a15.79,15.79,0,0,1-2.64-.43l-2.68-.69-2.56-1a16.69,16.69,0,0,1-2.38-1.22l-1.1-.64a7.65,7.65,0,0,1-1-.68c-.63-.47-1.22-.95-1.76-1.38-.26-.21-.53-.41-.76-.62l-.61-.65-1-1.06c-.53-.59-.83-.94-.83-.94"/><path id="path4697" class="cls-9" d="M132.19,147s-7.65-.84-7.19,5.66,10,4.64,10.9,1.62Z"/><path id="path4701" class="cls-9" d="M137.53,154.34a5.36,5.36,0,0,0,7.07,2.76l.12,0c5.1-2.06,4.87-6.86-3.94-9.33Z"/><path id="path4705" class="cls-10" d="M135.9,154.29c-7.4-.41-8.73-8.21-.69-7.19s13.22,7.89.69,7.19"/><path id="path4709" class="cls-5" d="M159.8,77.73s5.8,12.53,10.67,16.94,17.17,15.55,4.67,37.37c-8.3,14.5-45.4,31.07-64.76,6.48,0,0-8.35,10.44-16.24-.23s6-13.69,9.75-10.91c0,0,3,6,5.33,6.73s5.11-5.57-2.09-9.75a21.79,21.79,0,0,0-2.32-13.45s10.91-2.32,13-7.19c0,0,.29,7.19,4.44,7s17.37-9,24.09-21.58c0,0,.93,4.41,3.95,4.17s8.12-7.88,9.51-15.54"/><path id="path4713" class="cls-11" d="M152.61,107.2a4.29,4.29,0,0,1,.6-.13,6.78,6.78,0,0,1,1.62-.08,6.91,6.91,0,0,1,1.11.16,5.13,5.13,0,0,1,1.21.43,4.69,4.69,0,0,1,1.18.84,4.35,4.35,0,0,1,.82,1.33c.07.25.12.51.17.76s0,.49.05.73a5.26,5.26,0,0,1-.22,1.42,4.14,4.14,0,0,1-.61,1.18,3.63,3.63,0,0,1-.82.84,4.15,4.15,0,0,1-1.48.75,3.24,3.24,0,0,1-.62.12,3.41,3.41,0,0,0,.48-.37,7.39,7.39,0,0,0,1-1.09,4.43,4.43,0,0,0,.48-.81,5,5,0,0,0,.31-1,6.29,6.29,0,0,0,.07-1.06,1.75,1.75,0,0,0-.06-.56c-.06-.18-.07-.33-.12-.5a2.7,2.7,0,0,0-.5-.87,3,3,0,0,0-.78-.69,5.52,5.52,0,0,0-.92-.51q-.48-.21-.93-.36a21.17,21.17,0,0,0-2.07-.58"/><path id="path4717" class="cls-12" d="M144.53,132.48a17.13,17.13,0,0,0-13.77,1.31c4,4.75,9.87,9.5,17.33,8.9A14.9,14.9,0,0,0,154,141a17.06,17.06,0,0,0-9.48-8.52"/><path id="path4721" class="cls-13" d="M165.83,116.94c-.33.07-20.87,6.59-40.85,7.89a43.67,43.67,0,0,0,5.78,9,16.54,16.54,0,0,1,22.61,6c.23.39.44.79.63,1.19,9.38-5,11.43-19.16,11.82-24.06"/><path id="path4725" class="cls-14" d="M138.1,108.9a2.69,2.69,0,1,1-3.82-1.31,2.86,2.86,0,0,1,3.82,1.31"/><path id="path4729" class="cls-14" d="M162.35,97.29A2.69,2.69,0,1,1,158.53,96a2.86,2.86,0,0,1,3.82,1.31"/><path id="path4733" class="cls-15" d="M131.75,95.2l-.54.37-.62.4-.37.23c-.13.09-.25.2-.38.31s-.54.45-.85.68a11.23,11.23,0,0,0-.86.83,6.39,6.39,0,0,0-.87.93l-.83,1-.7,1.1a8,8,0,0,0-.6,1.12,8.92,8.92,0,0,0-.52,1.08c-.13.36-.26.7-.39,1s-.13.31-.18.46a3.77,3.77,0,0,0-.1.43c0,.14-.14.5-.2.7l-.19.63a3,3,0,0,0-.1-.64,3.06,3.06,0,0,0-.07-.76v-.47a4.57,4.57,0,0,1,.05-.52,7.68,7.68,0,0,1,.17-1.17,5.57,5.57,0,0,1,.39-1.26,5.51,5.51,0,0,1,.57-1.29l.76-1.25,1-1.11a7.28,7.28,0,0,1,1.06-.94,6.13,6.13,0,0,1,1.08-.75c.37-.2.73-.37,1-.52a4,4,0,0,1,.47-.21l.46-.13.74-.17.64-.11"/><path id="path4737" class="cls-15" d="M149.52,86l.26-.29a4.43,4.43,0,0,1,.79-.64c.18-.11.38-.23.59-.34a4.34,4.34,0,0,1,.7-.3,5,5,0,0,1,.78-.24l.82-.16h.85a3.66,3.66,0,0,1,.81,0,4.94,4.94,0,0,1,.75.14c.22.06.44.13.65.21a3.93,3.93,0,0,1,.91.47l.32.22-.4.06a5.09,5.09,0,0,0-1,.08h-1.3l-.72.06-.74.06-.74.09a5.52,5.52,0,0,0-.71.1,1.72,1.72,0,0,0-.68.09l-.62.09a9,9,0,0,0-1,.15h-.39"/><path id="path4741" class="cls-16" d="M168.56,113.17c1.68,4.23,9.11,1.94,7.48-3s-9.17-1.29-7.48,3"/><path id="path4745" class="cls-16" d="M115.83,130.51c1.69,4.23,9.11,1.93,7.49-2.95s-9.17-1.29-7.49,2.95"/><path id="path4749" class="cls-17" d="M112,65.26a23.41,23.41,0,0,0-30.26,6.88c-2.07,2.89-3.46,6.21-5.33,9.23s-4.37,5.88-7.74,7-7.69-.05-9.16-3.29"/><path id="path4753" class="cls-18" d="M62.12,87.8S64,76.88,51,67.1c0,0-.47,3.33,0,4.43,0,0-5.11-1.69-5.8-1s2.55,3.94,2.55,3.94-4.47-.33-5.83,1.11,4.21,4,4.21,4-8.12-.47-8.59.69S53.08,96,62.12,87.8"/><path id="path4757" class="cls-18" d="M122.24,64s-10.14-6.12-15.91,7.49c0,0,7.82-.53,15.91-7.49"/><path id="path4761" class="cls-7" d="M97.46,105.73s38.6-14.64,60.29-31.89L143.07,55.31,88.25,88Z"/><path id="path4765" class="cls-19" d="M65.58,97.46l5.8,5.72s86.77-53.67,88.86-54.83l-5.06-6S74.39,90,65.58,97.46"/><path id="path4769" class="cls-8" d="M90,91.69s3.31-2.32,8.38-5.65c1.27-.83,2.64-1.74,4.1-2.67s3-2,4.6-3L112,77.29l5.12-3.19,5.14-3.16c1.69-1,3.37-2,5-3s3.2-1.91,4.7-2.79,2.91-1.71,4.23-2.46c2.62-1.53,4.83-2.76,6.37-3.62L145,57.71l-2.28,1.59c-1.46,1-3.56,2.41-6.09,4.08-1.26.84-2.64,1.73-4.1,2.68s-3,1.93-4.6,2.94-3.24,2.08-4.94,3.12l-5.12,3.18-5.14,3.15-5,3c-1.62,1-3.21,1.9-4.7,2.78L98.8,86.7c-5.24,3-8.8,5-8.8,5"/></g><g id="g5505"><path id="path4773" class="cls-20" d="M884.61,236.34s7.56,22.91,16.12,20.9-.51-24.18-2.52-25.43-14.1-.76-13.6,4.53"/><path id="path4777" class="cls-21" d="M898.21,231.81a5.84,5.84,0,0,0-2.4-.54,36.85,36.85,0,0,1,4.74,26h.18c8.56-2-.51-24.18-2.52-25.43"/><path id="path4781" class="cls-20" d="M802,280.4s-13.33,11.6-11.06,17.38,25.18-7.3,26.19-10.07-5.79-9.32-8.31-10.33-6.8,3-6.8,3"/><path id="path4785" class="cls-21" d="M790.94,297.77h0c2.26,5.79,25.18-7.3,26.19-10.07.33-.92-.2-2.24-1.13-3.64a59.52,59.52,0,0,1-25.06,13.7"/><path id="path4789" class="cls-17" d="M867.39,79.37a24.12,24.12,0,0,1,31.53-5.3c3.1,1.94,5.73,4.55,8.69,6.7s6.47,3.89,10.12,3.63,7.3-3.07,7.43-6.73"/><path id="path4793" class="cls-18" d="M923.77,81.27s-6-9.67,2.49-24.08c0,0,1.74,3,1.73,4.22,0,0,4.21-3.61,5.14-3.22s-.88,4.76-.88,4.76,4.12-2.07,6-1.23-2.44,5.46-2.44,5.46,7.55-3.63,8.45-2.71-8.65,21.08-20.48,16.8"/><path id="path4797" class="cls-18" d="M857.18,82.22s7.27-9.81,18.1.89c0,0-7.66,2.57-18.1-.89"/><path id="path4801" class="cls-22" d="M837.27,97.84,814,52.77,917.88,109l6.27,30.11Z"/><path id="path4805" class="cls-19" d="M814,52.77l1.85-3.53,103.29,55.9,6.55,32.91-1.51,1.09L917.88,109Z"/><path id="path4809" class="cls-5" d="M809.57,113s9.57-6,9.57-8.81-8.56,0-8.56,0S811.84,90,807.31,88,803,100.49,803,100.49s-2.27-13.61-6.55-12.66-1,12.54-1,12.54-5.79-8.57-9.06-6.31,2.77,13.6,5.79,15.62,10.32,6,17.37,3.27"/><path id="path4813" class="cls-23" d="M799.74,104.18a3.07,3.07,0,0,1,1.13,0,4.61,4.61,0,0,1,.53.15,2.85,2.85,0,0,1,.55.28,2.9,2.9,0,0,1,.53.39l.48.5.35.59a1.79,1.79,0,0,1,.24.63,2,2,0,0,1,.13.6,2.62,2.62,0,0,1,0,.56,2.21,2.21,0,0,1-.21.8l-.14.27-.16-.27c-.11-.17-.17-.4-.34-.65a1.9,1.9,0,0,1-.22-.4c-.07-.14-.18-.26-.25-.4a2.72,2.72,0,0,0-.27-.42l-.29-.43-.32-.4a2.3,2.3,0,0,0-.32-.38c-.12-.1-.2-.27-.32-.36a3.22,3.22,0,0,1-.32-.32c-.1-.1-.41-.35-.54-.49l-.23-.22"/><path id="path4817" class="cls-5" d="M901.23,151.73s-.07-13.6,3.11-15.61,5.2,10.57,5.2,10.57,7.81-14.35,12.09-12.84-4.28,14.35-4.28,14.35,10.07-9.42,13.6-5.47S923.89,156,923.89,156,934,154.5,935,158.53s-21.15,11.08-23.92,10.32-12.59-9.31-9.82-17.12"/><path id="path4821" class="cls-23" d="M910.26,157.88s.06-.21.21-.59a3.18,3.18,0,0,1,.32-.67,4.07,4.07,0,0,1,.57-.79,4.9,4.9,0,0,1,.83-.81,6.1,6.1,0,0,1,1.09-.73,7.83,7.83,0,0,1,1.32-.51,5.78,5.78,0,0,1,2.94-.1,8.11,8.11,0,0,1,1.35.42,6.2,6.2,0,0,1,1.14.67,4.91,4.91,0,0,1,.88.76,4.07,4.07,0,0,1,.61.76,3.72,3.72,0,0,1,.36.65l.24.59-.48-.41a3.87,3.87,0,0,0-.55-.43,7.15,7.15,0,0,0-.73-.49,6.42,6.42,0,0,0-.9-.47c-.31-.16-.68-.26-1-.4a11.56,11.56,0,0,0-1.14-.24,7.72,7.72,0,0,0-1.18-.09,5.87,5.87,0,0,0-1.18.15,7.54,7.54,0,0,0-1.13.3,9.34,9.34,0,0,0-1,.46,7.77,7.77,0,0,0-.87.53,5.06,5.06,0,0,0-.69.53,3.87,3.87,0,0,0-.52.47l-.44.45"/><path id="path4825" class="cls-7" d="M784.14,109.42s19.77-1.77,27.51,2.14c0,0-6,24.5,0,39.76s30.66,23.58,46.27,24.08,39.79-23.73,40.54-24.08,17.38,15.27,16.37,18.79-33.49,24.43-56.15,23.17c0,0-4.54,18.88,2.77,25.18s20.61,6.55,23.15,6c0,0,12.1,15.11,4,28.21S856.37,269.28,847.81,268s-21.32,6.65-27,10.82-28.45,11.08-38.27-5,4.28-44.57,11.08-57.92,15.86-27.19,15.36-33c0,0-15.11-14.6-20.9-29a77.57,77.57,0,0,1-4-44.58"/><path id="path4829" class="cls-8" d="M808.82,184.46s0-.35-.05-1,0-1.46-.09-2.49c0-.52-.08-1.07-.1-1.65s-.14-1.2-.17-1.84a18,18,0,0,0-.23-1.94c-.1-.66-.19-1.34-.29-2l-.39-2c-.11-.66-.29-1.29-.43-1.91s-.26-1.23-.44-1.79-.32-1.09-.45-1.59c-.24-1-.57-1.8-.72-2.39l-.25-.93.52.8A16.26,16.26,0,0,1,807,166c.23.47.46,1,.7,1.55a15.7,15.7,0,0,1,.64,1.78,15.19,15.19,0,0,1,.56,2c.15.67.29,1.36.44,2s.17,1.4.25,2.09a19,19,0,0,1,.1,2v1.9a16.48,16.48,0,0,1-.16,1.69,21,21,0,0,1-.45,2.49c-.15.59-.23.93-.23.93"/><path id="path4833" class="cls-8" d="M802.12,211.43l-.41.65c-.26.43-.69,1-1.13,1.86a38.33,38.33,0,0,0-3.17,7,43.2,43.2,0,0,0-1.3,5,39,39,0,0,0-.5,11.76,40.1,40.1,0,0,0,1.23,6.15,38,38,0,0,0,2.29,5.84,46.12,46.12,0,0,0,3.14,5.23,41.35,41.35,0,0,0,3.64,4.39,46,46,0,0,0,3.77,3.48,37.76,37.76,0,0,0,6.46,4.22c.82.47,1.51.74,2,1l.7.32-.73-.25c-.47-.18-1.19-.38-2.05-.76a32.88,32.88,0,0,1-6.86-3.81,36.85,36.85,0,0,1-4-3.38,36.37,36.37,0,0,1-3.91-4.41,38.49,38.49,0,0,1-3.35-5.36,35.26,35.26,0,0,1-3.71-18.8,37.72,37.72,0,0,1,2.48-10.84,33.57,33.57,0,0,1,3.71-6.91c.51-.79,1-1.35,1.31-1.76l.47-.6"/><path id="path4837" class="cls-8" d="M797.27,260.73l.65.51.71.58a6.42,6.42,0,0,0,.93.72c.36.24.75.5,1.14.79a13.39,13.39,0,0,0,1.31.79,9.9,9.9,0,0,0,1.44.76l1.52.72,1.58.56a10.68,10.68,0,0,0,1.56.45c.52.11,1,.31,1.49.37l1.36.24a6.59,6.59,0,0,0,1.17.16l.91.09.82.11-.8.19-.92.19a5,5,0,0,1-1.22.12h-1.46a9.81,9.81,0,0,1-1.62-.19,9.18,9.18,0,0,1-1.71-.38l-1.72-.57-1.62-.82a17.88,17.88,0,0,1-2.75-1.94c-.38-.35-.71-.71-1-1a6.46,6.46,0,0,1-.78-.95l-.53-.78-.43-.69"/><path id="path4841" class="cls-8" d="M857.46,193s-1.53,3.31-4.06,8.14c-.63,1.21-1.32,2.52-2.07,3.89s-1.56,2.81-2.42,4.28-1.77,3-2.73,4.51-2,3-3,4.56-2.09,3-3.19,4.41-2.21,2.8-3.3,4.12-2.2,2.56-3.3,3.68-2.13,2.19-3.15,3.11l-1.42,1.3-1.36,1.14c-.84.72-1.59,1.33-2.24,1.8l-2,1.48L825,237.7c.59-.53,1.28-1.21,2-2l1.25-1.24,1.33-1.41c.94-1,1.91-2.09,2.93-3.26s2-2.45,3.12-3.75,2.12-2.71,3.17-4.14S841,219,842,217.51l3-4.49c1-1.49,1.91-3,2.82-4.4s1.76-2.85,2.58-4.17l2.29-3.75c2.82-4.66,4.77-7.74,4.77-7.74"/><path id="path4845" class="cls-8" d="M850.05,214.17s-.11,1.48-.47,3.69c-.09.55-.18,1.15-.3,1.78s-.3,1.28-.48,2-.39,1.37-.59,2.08-.43,1.41-.65,2.13l-.83,2.06c-.27.68-.57,1.34-.85,2a17.68,17.68,0,0,1-.85,1.82c-.31.57-.61,1.09-.9,1.57-.56,1-1.06,1.76-1.41,2.31l-.57.84.3-1c.21-.62.5-1.5.9-2.53.19-.52.41-1.08.65-1.66s.43-1.23.67-1.87.46-1.32.73-2,.52-1.36.79-2l.68-2.08.71-2c.21-.66.5-1.26.67-1.87s.37-1.17.54-1.7c.68-2.1,1.26-3.49,1.26-3.49"/><path id="path4849" class="cls-8" d="M830.69,258.57l.92.3c.58.17,1.37.53,2.37.81l1.58.5c.58.19,1.17.3,1.78.5a13,13,0,0,0,1.91.48l2,.44,2,.34c.66.13,1.32.19,2,.28s1.25.19,1.83.22,1.14.08,1.66.14c1,.12,1.89.1,2.5.17l1,.08-.93.22a17.84,17.84,0,0,1-2.52.39c-.53.05-1.1.09-1.71.11a15.06,15.06,0,0,1-1.9,0,14.85,14.85,0,0,1-2-.17L841,263l-2-.52a16.26,16.26,0,0,1-1.94-.63c-.6-.2-1.19-.44-1.77-.7l-1.54-.75a18.46,18.46,0,0,1-2.17-1.32l-.79-.55"/><path id="path4853" class="cls-9" d="M830,168.34s-1.49,17.38,0,20.91c0,0,17.36-11.7,18.38-13.23S830,168.34,830,168.34"/><path id="path4857" class="cls-24" d="M825.94,99.1s-5.79-5.79-8.06-5,2.77,6.78,2.77,6.78-8.62.41-8.81,5.56,47.59,26,47.09,27.34,19.82,30.34,27.28,28.07,12.25-10.49,12.25-10.49,7,5.14,7.3,0-4.28-12.69-7.8-15c0,0,6.47.5,6.38-1.51s-10.16-8.06-17.46-10.33S825.94,99.1,825.94,99.1"/><path id="path4861" class="cls-7" d="M822.17,98.6S836.52,84,838.53,83.74s56.15,31,58.92,34l-3,11.84s-65.25-27.2-72.3-31"/><path id="path4865" class="cls-8" d="M838.53,83.74s4,1.45,9.88,4.07c1.46.65,3,1.36,4.7,2.15s3.41,1.6,5.19,2.5l5.49,2.8c1.85,1,3.74,2,5.61,3s3.72,2.09,5.53,3.16,3.58,2.14,5.28,3.21,3.32,2.12,4.83,3.16,3,2,4.23,3,2.47,1.86,3.47,2.69,1.9,1.55,2.58,2.2l2.13,2-2.5-1.54c-.77-.52-1.76-1.07-2.87-1.73s-2.36-1.41-3.75-2.19l-4.47-2.55-5-2.81-5.36-3c-1.81-1-3.67-2.06-5.53-3.08s-3.71-2.08-5.53-3.1l-5.35-3c-1.74-1-3.4-2-5-2.86S849,90,847.64,89.23c-5.52-3.22-9.13-5.53-9.13-5.53"/><path id="path4869" class="cls-25" d="M822.16,112.19s-.5-7.3-8-7-13.1,19.14-2.27,20.15,10.32-13.1,10.32-13.1"/><path id="path4873" class="cls-5" d="M826.19,101.87s-4.53,8.18-8.81,12-17.12,14.42-11.58,33,31,29.47,48.59,29.47,30.21-12.34,30.21-12.34,10.94,7.75,19.07-1.67.58-19.48-12.51-17.22c0,0-1.76,12.09-4.28,12.84s-12.09-9.56.25-17.37c0,0-10.58-8.81-9.57-17.63,0,0,.25,5.29-2.77,6.3s-14.34-7.56-16-13.85c0,0-5.42,2-9.2.5s-6-6.94-6-6.94-3.28,5.68-7.81,5.93-9.57-13.09-9.57-13.09"/><path id="path4877" class="cls-23" d="M901,157.46l.28-.35c.09-.11.2-.24.32-.4a5.24,5.24,0,0,0,.34-.61,6.06,6.06,0,0,0,.47-4.08,5.19,5.19,0,0,0-1.32-2.28,5.77,5.77,0,0,0-2.58-1.34,5.05,5.05,0,0,0-3,.28,4.68,4.68,0,0,0-2.26,2.09,5.08,5.08,0,0,0-.65,3,1.74,1.74,0,0,0,0,.39v.27h.84a4.86,4.86,0,0,1,1,.24,4.66,4.66,0,0,1,2.8,2.36,4.26,4.26,0,0,1,.13,3.25,3.11,3.11,0,0,1-1.92,1.91,3.58,3.58,0,0,1-2,0,2.69,2.69,0,0,1-1.37-1,2.64,2.64,0,0,0,1.44.7,3.07,3.07,0,0,0,1.74-.27,2.49,2.49,0,0,0,1.32-1.65,3.5,3.5,0,0,0-.31-2.46,3.66,3.66,0,0,0-2.19-1.62,3.06,3.06,0,0,0-.73-.15h-1.56c-.06,0-.17.06-.17,0l-.24-.83-.17-.59a2.07,2.07,0,0,1-.06-.5,6.44,6.44,0,0,1,.78-3.92,6.17,6.17,0,0,1,3-2.68,6.37,6.37,0,0,1,3.86-.22,6.45,6.45,0,0,1,3.06,1.84,5.81,5.81,0,0,1,1.36,2.86,6.2,6.2,0,0,1-1,4.39c-.17.21-.3.42-.44.57l-.41.35-.33.29"/><path id="path4881" class="cls-23" d="M809.62,109.75l.29-.32a2.08,2.08,0,0,1,.4-.32,2.22,2.22,0,0,1,.59-.31,3,3,0,0,1,.77-.22,3.47,3.47,0,0,1,.91,0,4.21,4.21,0,0,1,1,.19,4.81,4.81,0,0,1,.94.46,4.64,4.64,0,0,1,.77.7,4.19,4.19,0,0,1,.55.84,3.87,3.87,0,0,1,.29.87,2.68,2.68,0,0,1,.07.8,2.16,2.16,0,0,1-.08.67,1.6,1.6,0,0,1-.16.48l-.21.39a1.49,1.49,0,0,0-.09-.42,3.17,3.17,0,0,0-.12-.44,4.94,4.94,0,0,0-.47-1.11c-.1-.2-.25-.38-.37-.59a2.58,2.58,0,0,0-.46-.53,4.69,4.69,0,0,0-.54-.46,3.2,3.2,0,0,0-.63-.34,3.77,3.77,0,0,0-.66-.26c-.23,0-.46-.12-.68-.13a4.6,4.6,0,0,0-.64,0,2.71,2.71,0,0,0-.57,0,2.4,2.4,0,0,0-.46,0l-.42.07"/><path id="path4885" class="cls-11" d="M841.43,133.74a16.33,16.33,0,0,0-2.6.49,7.83,7.83,0,0,0-1.15.4,5.37,5.37,0,0,0-1.12.63,3,3,0,0,0-.83.94,3.34,3.34,0,0,0-.42,1.22,3,3,0,0,0,.06,1.27,3.56,3.56,0,0,0,.54,1.15,5.82,5.82,0,0,0,.86.93,6.84,6.84,0,0,0,1,.69,7.79,7.79,0,0,0,1.7.75,6.44,6.44,0,0,0,.72.2,6.42,6.42,0,0,1-.75.1,5.43,5.43,0,0,1-2-.26,5.88,5.88,0,0,1-1.28-.57,4.78,4.78,0,0,1-1.24-1,4,4,0,0,1-.88-1.57,4.36,4.36,0,0,1,.54-3.63,4.46,4.46,0,0,1,1.31-1.25,5.33,5.33,0,0,1,1.49-.59,6.2,6.2,0,0,1,1.36-.2,8.39,8.39,0,0,1,2,.15,4.58,4.58,0,0,1,.73.18"/><path id="path4889" class="cls-14" d="M864.58,135.31c-.55,1.93-2.16,3.16-3.6,2.75s-2.16-2.3-1.61-4.23,2.16-3.17,3.6-2.76,2.16,2.31,1.61,4.24"/><path id="path4893" class="cls-14" d="M835.34,126.08c-.54,1.93-2.16,3.16-3.59,2.76s-2.16-2.31-1.62-4.24,2.16-3.16,3.6-2.76,2.16,2.31,1.61,4.24"/><path id="path4897" class="cls-26" d="M862,119.16l.46-.06a5.14,5.14,0,0,1,1.24,0,4.28,4.28,0,0,1,.82.12,4.69,4.69,0,0,1,.89.24c.3.12.63.21.93.36l.91.5c.29.18.55.42.83.62a4,4,0,0,1,.73.69c.22.24.42.47.6.71a5,5,0,0,1,.42.73,3.77,3.77,0,0,1,.44,1.17c.07.29.1.46.1.46l-.36-.31c-.23-.19-.48-.5-.86-.79-.19-.15-.38-.32-.57-.5l-.66-.51a7.17,7.17,0,0,0-.71-.52c-.25-.17-.48-.37-.75-.52l-.78-.48a8.46,8.46,0,0,0-.77-.44c-.26-.12-.49-.3-.74-.4s-.47-.23-.69-.34c-.42-.23-.8-.36-1.06-.5l-.42-.22"/><path id="path4901" class="cls-26" d="M829.87,110.74s.11-.1.32-.26a4,4,0,0,1,.95-.58c.21-.08.44-.19.69-.27a4.46,4.46,0,0,1,.8-.2,6.56,6.56,0,0,1,.89-.11h.92l.91.14a4.89,4.89,0,0,1,.85.25,3.43,3.43,0,0,1,.76.33c.22.12.43.25.64.39a4.19,4.19,0,0,1,.83.74l.27.32-.42-.06c-.27,0-.6-.15-1-.21a5.13,5.13,0,0,1-.66-.13,3.82,3.82,0,0,1-.72-.11,6.2,6.2,0,0,0-.77-.11l-.79-.1h-.79a5.08,5.08,0,0,0-.78,0h-2.83"/><path id="path4905" class="cls-13" d="M820.73,143.74s36.64,5.92,43.44,5.67c0,0-8.33,18.51-25.81,16.62s-17.63-22.29-17.63-22.29"/><path id="path4909" class="cls-12" d="M847.26,157.78a23.14,23.14,0,0,0-12.49,6,12.06,12.06,0,0,0-1.1,1.16,20.45,20.45,0,0,0,4.69,1.07c8.6.93,15-3.08,19.24-7.38a23.22,23.22,0,0,0-10.34-.87"/><path id="path4913" class="cls-16" d="M820.89,135.88a5.24,5.24,0,1,1-4.1-6.17l.27.06a5.08,5.08,0,0,1,3.83,6.09v0"/><path id="path4917" class="cls-16" d="M878.29,148.92a5.25,5.25,0,1,1-4.13-6.17l.3.07a5.11,5.11,0,0,1,3.83,6.1"/></g><g id="g7320" class="cls-27"><path id="path5003" class="cls-28" d="M458.33,384.76s-87.84,79.42-90.88,203.52l76.76,26s9.5-154.6,61.21-199.74Z"/><path id="path5007" class="cls-28" d="M544.46,373.89s83.52,83.95,80,208l-78.08,32.34s-1.27-165.33-50.52-213.14Z"/><path id="path5011" class="cls-29" d="M519.67,169.41l.93-1.35c18.9-27.59,62.13-13.55,61.2,19.88v1.64a33.56,33.56,0,0,0,44.77,32.54l1.55-.56c31.51-11.21,58.23,25.55,37.83,52.06l-1,1.3a33.56,33.56,0,0,0,17,52.64l1.58.46c32.09,9.46,32.09,54.9,0,64.35l-1.58.46a33.55,33.55,0,0,0-17.1,52.64l1,1.3c20.4,26.51-6.32,63.27-37.83,52.06l-1.55-.55a33.54,33.54,0,0,0-44.77,32.53v1.64c.93,33.44-42.3,47.48-61.2,19.88l-.93-1.35a33.54,33.54,0,0,0-55.34,0l-.93,1.35c-18.91,27.6-62.12,13.56-61.2-19.88l.05-1.64a33.54,33.54,0,0,0-44.78-32.53l-1.55.55C324.41,510,297.7,473.28,318.1,446.77l1-1.3A33.56,33.56,0,0,0,302,392.83l-1.58-.46c-32.08-9.45-32.08-54.89,0-64.34l1.58-.47a33.55,33.55,0,0,0,17.11-52.64l-1-1.3c-20.4-26.51,6.31-63.27,37.82-52.06l1.55.56a33.56,33.56,0,0,0,44.78-32.54l-.05-1.64c-.92-33.43,42.29-47.47,61.2-19.88l.93,1.35a33.54,33.54,0,0,0,55.34,0"/><path id="path5015" class="cls-28" d="M640.39,360.2A148.39,148.39,0,1,1,492,211.81,148.39,148.39,0,0,1,640.39,360.2h0"/></g><g id="text4933"><path id="path4899" class="cls-30" d="M343.74,42.85q14.89,0,22.92,11.71T374.81,83a72.26,72.26,0,0,1-4.07,24.33A46.23,46.23,0,0,1,358,126.39,29.65,29.65,0,0,1,337.75,134q-2.28,0-17.31-1.78,1.77-27.39,1.78-45.34t-1.15-39.73a68.87,68.87,0,0,1,22.67-4.33Zm-2.8,75.64q5.85,0,11.59-10.31a45.18,45.18,0,0,0,5.85-22.42q0-12.09-4.2-19.86t-9.8-7.77a16,16,0,0,0-5.73,1q.51,18.84.51,31.71t-.77,26.61a3.21,3.21,0,0,0,2.55,1Z"/><path id="path4902" class="cls-31" d="M386.15,71.37l14.51,1.41V133.9l-14.51-1.4Zm1-22.41,14.27,1.66-1.28,14.26L385.89,63.1Z"/><path id="path4904" class="cls-32" d="M429.11,80.54q5.08-7.77,12.61-7.76a13.42,13.42,0,0,1,11.71,6.11q4.2,6.1,4.2,16a56.82,56.82,0,0,1-6.36,26.87Q445,133.91,437.9,133.9a27,27,0,0,1-8.79-1.27q.25,17.56.89,30.69l-14.9-1.53q-.63-22.92-.64-48.65t1.79-44.57L429.49,70Zm3.82,40.63q3.57,0,6.62-7a33.71,33.71,0,0,0,3.18-14,36.46,36.46,0,0,0-1.27-11c-.85-2.63-1.82-3.94-2.93-3.94-1.87,0-3.53,1.1-5,3.31a54,54,0,0,0-4.33,9.55q-.13,6.61-.13,20.37c1.27,1.78,2.55,2.68,3.82,2.68Z"/><path id="path4906" class="cls-33" d="M484.4,40.17q-1.92,32.22-1.91,58.07t.63,36.3l-15-1.4q-.51-13.24-.51-37.57T469.5,39Z"/><path id="path4908" class="cls-34" d="M507.24,109.2q0,14.39,6.37,14.39,2.79,0,4.71-8A68.29,68.29,0,0,0,520.23,100q0-16.31-5.35-16.3-3.43,0-5.6,8.78a72.77,72.77,0,0,0-2,16.69Zm-14.9-1.15a58.33,58.33,0,0,1,4.84-23.18,23.6,23.6,0,0,1,7.13-9.29,16.48,16.48,0,0,1,10.44-3.7,17.52,17.52,0,0,1,9.81,2.68,16.59,16.59,0,0,1,6.36,6.87,41.48,41.48,0,0,1,4.21,18.6,51.94,51.94,0,0,1-5.73,24.7q-5.61,10.7-15.79,10.7-21.27,0-21.27-27.38Zm20.37-61.51,8.66.64a187.73,187.73,0,0,1,12.87,14.64l-7.39,5.61q-6.61-5.87-10.32-8.92A150.34,150.34,0,0,0,503.8,68.57l-7.39-5.47A193,193,0,0,1,512.71,46.54Z"/><path id="path4910" class="cls-35" d="M570.55,75.32q7.77,0,11.85,5.35Q589,71,595.51,71q17.7,0,17.7,26.62A318.37,318.37,0,0,1,610.67,134l-14.78-1.28q2.43-23.81,2.42-36.29T594.24,84q-1.79,0-4.2,5.73a44.88,44.88,0,0,0-3.19,12.74q-.26,15.91-1,28.39L571,129.46q1-18,1-29.54t-3.18-11.59q-2,0-5.35,7.13a62.62,62.62,0,0,0-4.58,14.77Q559,122,560,134.43l-14.9-1.4q-1.4-18-1.4-32.73t.77-27.63l10.57.76q.76,3.43,2.16,12.48,6.75-10.56,13.37-10.57Z"/><path id="path4912" class="cls-36" d="M641.8,123q4.85,0,10.32-9.3l9.67,5.73a59.38,59.38,0,0,1-4.71,7.13,22.31,22.31,0,0,1-6.62,5.61,19,19,0,0,1-9.93,2.67q-8,0-13.5-6.75t-5.48-18.46a64.37,64.37,0,0,1,4.71-24.71,23.94,23.94,0,0,1,7.26-9.68,15.82,15.82,0,0,1,9.81-3.82A17.23,17.23,0,0,1,651.48,73a15.6,15.6,0,0,1,4.84,3.57,15.76,15.76,0,0,1,3.31,5.73,46.81,46.81,0,0,1,1.91,6.24,44.54,44.54,0,0,1,1,7q.51,6.12.51,11.08a216.64,216.64,0,0,1-26.36,5.09,24.26,24.26,0,0,0,1.78,8.15c.93,2,2,3.06,3.31,3.06Zm2.8-39.1c-1.87,0-3.56,1.87-5.09,5.61a42.16,42.16,0,0,0-2.55,13q6.75-1.41,11.72-2.68,0-16-4.08-16Z"/></g><g id="g4789"><path id="path4695" class="cls-37" d="M490.44,160h-.54c-2.65.21-5.6.66-7.75,2.31-2.19.89-4.52,2.06-5.71,4.09a39.67,39.67,0,0,0-11.58,7.88,57,57,0,0,0-15.06,25.66c3.19,2.49,7.3,3.05,11.26,3.44l5.12,9.88a35.17,35.17,0,0,1-3.26,9.45h-.46c-.7-.12-1.87.54-2-.53-.9-1.87-2.51-3.89-4.79-3.83-2.59.46-4.46,2.3-6.09,4.28a13.58,13.58,0,0,0-9.46-3.18,7.17,7.17,0,0,0-6.59,5.74c-.61,1.81-.5,4.6,1.68,5.21s4.48-.6,6.63.37a23.4,23.4,0,0,1,3.31,1.39,8.35,8.35,0,0,0,.59,3.08c1.8,5.66,7.11,9.37,12.59,11.06,3.2,1,7.11.85,9.56-1.69,3.05-3.07,4.72-7.3,5.73-11.46.26-1.56.51-3.83-1.24-4.61a5.76,5.76,0,0,0-3.46-.2,28.66,28.66,0,0,0,3.46-11q6,15,11.9,30c1.06.22,2.14.41,3.22.56,1.06,3.15,2.11,6.31,3.18,9.46,7.25,1.8,15.42,1.6,21.9-2.42a35.33,35.33,0,0,0,4.6-3.06c-.07-3.15-.11-6.31-.16-9.46l.67-.42a2.6,2.6,0,0,0,1.44-2.77c.15-2.26.29-4.53.44-6.79a37.75,37.75,0,0,0,4.86,2.39,11.11,11.11,0,0,0,9.23-.84c2.9-.5,6.14-.85,8.23-3.09,1.4-1.8.84-5.17-1.66-5.59a3.07,3.07,0,0,0-1.09-.11,1.64,1.64,0,0,0-.66.08,2.5,2.5,0,0,0-2.21-2.56h-.13a6.8,6.8,0,0,0-.17-1.1v-.06h0a4.36,4.36,0,0,0-1-2v-.05a3.64,3.64,0,0,0-.7-.6,2.38,2.38,0,0,0,.45-.38c.44-.32.88-.66.59-.91a4.36,4.36,0,0,0,.06-3.06,15.82,15.82,0,0,0-.46-1.8,24.65,24.65,0,0,0,5.63-6.41,44.07,44.07,0,0,0,3.3-5.32l.37-.08c4.7-.85,7.79-5.74,6.21-9.87a9,9,0,0,0-11-5l-3.14-2.6c.3-.36.33-.75-.3-1.22A47.37,47.37,0,0,0,530.4,176a6.2,6.2,0,0,0-.24-.87,8.29,8.29,0,0,0-8.29-5.77h-.34a50.43,50.43,0,0,0-15.95-6,51.81,51.81,0,0,0-5.82-.78c-1.47-1.93-4.43-2.3-6.68-2.39a1.27,1.27,0,0,0-.28.06,7.87,7.87,0,0,0-2.36-.33Zm39.25,28.17c1.33,1.48,2.67,3,4,4.45a6.39,6.39,0,0,0,.07,2,7.49,7.49,0,0,0,3.65,5.22,18.69,18.69,0,0,1-6,6,4.37,4.37,0,0,0-7.82,2.83,8.94,8.94,0,0,0-2.52.43c0-.66.09-1.31.13-2,.53-.31,1-.63,1.57-.95.73-5.09,1.45-10.19,2.19-15.28,1.61-.85,3.19-1.75,4.74-2.72Z"/><path id="path4697-9" d="M466.94,207.47l-.09.81a40.53,40.53,0,0,1-4.05,14.58h-.46c-.71-.12-1.87.54-2-.54-.91-1.86-2.51-3.88-4.79-3.82-2.59.46-4.47,2.3-6.1,4.28A13.46,13.46,0,0,0,440,219.6a7.16,7.16,0,0,0-6.6,5.74c-.6,1.81-.49,4.59,1.69,5.2s4.48-.59,6.62.37a23.57,23.57,0,0,1,3.32,1.4,8.3,8.3,0,0,0,.59,3.07c1.79,5.67,7.11,9.37,12.59,11.07,3.19,1,7.1.85,9.55-1.7,3.06-3.07,4.73-7.29,5.73-11.45.26-1.57.51-3.83-1.24-4.61a5.73,5.73,0,0,0-3.45-.2,27,27,0,0,0,3.34-16.68c-1.73-1.45-3.47-2.88-5.21-4.32Z"/><path id="path4699" class="cls-38" d="M467.64,209.19a48.68,48.68,0,0,1-2,9.32,30.9,30.9,0,0,1-1.93,4.51,7.44,7.44,0,0,1,4.69,4.36,27,27,0,0,0,2.09-5.11,24,24,0,0,0,.86-10l-3.68-3.05Z"/><path id="path4701-2" class="cls-39" d="M468.19,229.64s3.84-1.49,4.54.86-2.74,13.24-8,15.2-13.79-3-16.3-6.74-3.6-7.52-1.09-11.75,6.81-8.86,9.32-7.68,3.37,4.39,3.37,4.39,3.21-.79,5.33.86a9.57,9.57,0,0,1,2.82,4.86Z"/><path id="path4703" class="cls-40" d="M441,220.45a13,13,0,0,0-2.07.17c-4.54.79-5.72,7.14-4.54,8.47s2.82.39,5.56.55a15.4,15.4,0,0,1,5.11,1.7,12.76,12.76,0,0,1,2.56-6.27l1.25-1.61a12.25,12.25,0,0,0-7.87-3Z"/><path id="path4705-4" d="M495.84,162.65h-1.38a42.56,42.56,0,0,0-29.72,11.76,57,57,0,0,0-15.06,25.67c3.19,2.49,7.3,3,11.25,3.44,2,3.9,3.9,8.13,5.94,12a42.52,42.52,0,0,0,5.28,1.66c4.05,10.21,8,20.13,12,30.34,1.06.22,2.14.41,3.22.56l3.17,9.45c7.26,1.8,15.43,1.61,21.91-2.42a34.91,34.91,0,0,0,4.6-3c-.07-3.15-.11-6.31-.17-9.47l.68-.41a2.62,2.62,0,0,0,1.44-2.77q1-16.1,2-32.17l1.58-1q1.08-7.64,2.19-15.28a75.47,75.47,0,0,0,10.32-6.54c.76-.61,1.84-1.2.69-2.05a50,50,0,0,0-30.38-18.86,51.76,51.76,0,0,0-9.62-.94Z"/><path id="path4707" class="cls-41" d="M450.69,199.77s8.11-32.67,38.88-35.92,45.76,19.35,45.76,19.35-15.1,13.63-46.75,18.15-37.9-1.58-37.9-1.58Z"/><path id="path4709-5" class="cls-42" d="M523.87,191.54c-14.22,7.26-30.28,10.66-46.15,11.93a107.13,107.13,0,0,1-15.72.22l5.65,10.85a46.64,46.64,0,0,0,27.81,1.89,89.81,89.81,0,0,0,26.37-10.63l2-14.26Z"/><path id="path4711" class="cls-43" d="M520.16,207.8a90.82,90.82,0,0,1-18.38,7.83c-9.16,3.08-19.17,4.12-28.58,1.8l11.62,29.36a47.42,47.42,0,0,0,18.84,0c10.08-2.1,14.4-6.09,14.4-6.09Z"/><path id="path4713-0" class="cls-44" d="M516,243.12c-8.28,4.76-18.21,6.26-27.69,5.12l2.88,8.58a34.34,34.34,0,0,0,13.51.44c6-1.24,11.43-5.59,11.43-5.59Z"/><path id="path4715" class="cls-45" d="M520.16,207.8a90.82,90.82,0,0,1-18.38,7.83,57.18,57.18,0,0,1-10.17,2.4c12.42,3.86,22.13,12.34,26.13,22.93l.32-.26,2.1-32.9Z"/><path id="path4717-4" class="cls-46" d="M523.87,191.54c-14.22,7.26-30.28,10.66-46.15,11.93-2,.12-4,.25-6,.33-.42.18-.83.35-1.24.54,25.52-.47,43-.91,51.3,1.44l2-14.24Z"/><path id="path4719" class="cls-47" d="M495.15,163.53a54.77,54.77,0,0,0-5.58.32l-1,.11c13.46,4.1,22.94,13.89,22.94,25.32a20.63,20.63,0,0,1-1.22,7c16.87-5.7,25-13.05,25-13.05a49.42,49.42,0,0,0-40.18-19.67Z"/><path id="path4721-6" class="cls-48" d="M486.33,167.85c-14.59,0-28.95,14.4-32.64,32.43,4.28,1.63,9.05,1.68,13.6,1.83h2.23v-1.82c.7-15,9.12-27.73,20.16-32.16a21.33,21.33,0,0,0-3.39-.27Z"/><path id="path4723" class="cls-49" d="M476.56,218.81l10,27.41a49.71,49.71,0,0,0,9.12.61l-5.42-27.75a51.26,51.26,0,0,1-13.72-.27Z"/><path id="path4725-6" class="cls-50" d="M516,243.12a42.62,42.62,0,0,1-18.58,5.39,5.6,5.6,0,0,1,1.17.82c2,1.88,2.59,5.48,2.59,5.48s-.16-6.34,2.82-5.87,4.16,5.48,4.16,5.48-.09-5.87,1.72-5.87,3.68,4.77,3.68,4.77h.19c1.47-.93,2.39-1.65,2.39-1.65l-.14-8.55Z"/><path id="path4727" d="M541.19,197.48h-.31a3.7,3.7,0,0,0-3.48,2.38,18.62,18.62,0,0,1-6.12,6.08,4.37,4.37,0,0,0-7.82,2.84c-5,.12-9.2,4.37-9.79,9.24-.87,3.93-1.11,8.82,2,11.82a27.88,27.88,0,0,0,8.61,5.17,11.09,11.09,0,0,0,9.24-.83c2.9-.5,6.14-.85,8.23-3.1,1.4-1.79.84-5.16-1.66-5.58a3.32,3.32,0,0,0-1.09-.12,1.85,1.85,0,0,0-.66.09,2.5,2.5,0,0,0-2.21-2.56H536a5.84,5.84,0,0,0-.16-1.1v-.05h0a4.46,4.46,0,0,0-1-2v0a3,3,0,0,0-.7-.59,4.11,4.11,0,0,0,.45-.38c.44-.33.88-.67.59-.91a4.38,4.38,0,0,0,.06-3.07c-.12-.6-.29-1.2-.46-1.79a24.65,24.65,0,0,0,5.63-6.41,33.46,33.46,0,0,0,3.7-6.26,2.94,2.94,0,0,0-2.87-2.81Z"/><path id="path4729-3" class="cls-42" d="M530,207.52s1.45-.16,4.54-2.94a18,18,0,0,0,4.31-5.56c4.16-2.05,4.31,1.41,4.31,1.41s-4.86,8.42-7.8,10.81-3.72,2.94-3.72,2.94A8.15,8.15,0,0,1,530,207.52Z"/><path id="path4731" class="cls-9" d="M527.69,205.16a3.7,3.7,0,0,0-3.29,3.24,17,17,0,0,0,.22,4.27,4,4,0,0,1-1-3s-7.6-.11-9.15,8.92,1.33,10.75,6.1,13.63,8.42,3.22,11.47,1.72,5.15-2.49,4.76-5-5.54-2.28-7.53-1.61a35.24,35.24,0,0,1-3.55,1s1.6-5.55-.28-9.2-4.48-3.88-4.48-3.88a6.72,6.72,0,0,1,5.59,4.1,12.81,12.81,0,0,1,.56,7.76l1.57-.43c1.83-1.66,3.72-3.42,6.21-3.84h.27a4.48,4.48,0,0,0-.57-2.05c-1.22-2-2.86-.47-4.39-1.41,0,0,2.68.09,4-1.64.66-.83.21-2.75-.24-4.27-1.79,1-2,1.44-2.29,2.28a9.2,9.2,0,0,1-2.5-5.17c0-1.2-.51-2.7.31-3.72.34-.14.67-.3,1-.47a4,4,0,0,0-1.7-1.11,3,3,0,0,0-1.08-.14Z"/><path id="path4733-8" class="cls-51" d="M537.36,205.8c-1.49,0-5.36,2.23-7.43,3.51a8.28,8.28,0,0,0,1.27,4.24,27.9,27.9,0,0,1,3.38-2.74c2.19-1.48,4.85-4.95,2.78-5Z"/><path id="path4735" class="cls-52" d="M533.65,224.16a13.67,13.67,0,0,0-2.89,1.94c.2.07,1.08-.13,1.44-.07,1.53-.06,3.53.2,4.65,1.33a2.71,2.71,0,0,0,.62-1.35c0-.7,0-1.93-1.18-2.17A4,4,0,0,0,533.65,224.16Z"/><path id="path4737-4" class="cls-53" d="M539.2,226.27a2.5,2.5,0,0,0-1,.28,5,5,0,0,1-.7,1.74,3.68,3.68,0,0,1,.15.47c.41,1.74-.65,3.23-2,4.25,2-.48,4.57-1.26,5.35-2.26,1.33-1.69.56-3.82-.33-4.15a3.77,3.77,0,0,0-1.4-.33Z"/><path id="path4739" class="cls-54" d="M529.22,217.21a10.88,10.88,0,0,0-3.62.61,6.67,6.67,0,0,1,.9,1.55,12.81,12.81,0,0,1,.56,7.76l1.57-.43c1.83-1.66,3.72-3.42,6.21-3.84h.27a4.48,4.48,0,0,0-.57-2.05c-1.22-2.05-2.86-.47-4.38-1.41a5.83,5.83,0,0,0,3.62-1.19,10.56,10.56,0,0,0-4.56-1Z"/><path id="path4741-6" d="M541.67,185.85c-4.89.11-8.89,4.54-8,8.93.59,4.32,5.7,7.48,10.35,6.37,4.71-.85,7.79-5.74,6.22-9.88a8.59,8.59,0,0,0-8.57-5.42Z"/><path id="path4743" class="cls-42" d="M549.85,193.6c0,3.89-3.47,7-7.75,7s-7.76-3.15-7.76-7,3.47-7,7.76-7S549.85,189.71,549.85,193.6Z"/><path id="path4745-9" class="cls-55" d="M549,193.6c0,3.46-3.09,6.26-6.9,6.26s-6.9-2.8-6.9-6.26,3.09-6.27,6.9-6.27S549,190.14,549,193.6Z"/><path id="path4747" d="M490.32,160.14h-.55c-2.64.2-5.6.66-7.74,2.3-2.68,1.1-5.59,2.6-6.33,5.6-.35,2.47,2.3,4,4.41,4.34a24.62,24.62,0,0,0,17.27-3.48c1.78-1.12,3.68-3.42,2.59-5.61-1.31-2.37-4.59-2.79-7-2.88a.72.72,0,0,0-.29.06,8.1,8.1,0,0,0-2.35-.34Z"/><path id="path4749-2" class="cls-42" d="M494.12,162.88c0,1.5-2.91,3.19-6.49,3.78s-6.49-.16-6.49-1.66,2.9-3.19,6.49-3.78S494.12,161.38,494.12,162.88Z"/><path id="path4751" class="cls-42" d="M494,161.34a1.73,1.73,0,0,1,1,1.44c0,1.76-3.33,3.73-7.42,4.42s-7.42-.19-7.42-1.94a2.12,2.12,0,0,1,.57-1.33c-2.59,1.35-4.24,3-4.24,4.58,0,2.73,5.12,4.09,11.44,3s11.45-4.15,11.45-6.89c0-1.78-2.17-3-5.42-3.3Z"/><path id="path4753-7" class="cls-56" d="M492.94,163.07c0,1.23-2.38,2.61-5.31,3.09s-5.32-.13-5.32-1.35,2.38-2.62,5.32-3.1S492.94,161.84,492.94,163.07Z"/><path id="path4755" class="cls-57" d="M495.89,162.62c0,2.54-2.8,3.76-4.82,4.55-3.31,1.2-7.25,1.79-10.51.15a2.79,2.79,0,0,1-1.16-1.5c-1,.7-2.57,2.14-1.69,3.44,1.87,1.94,4.9,1.72,7.4,1.69,4.54-.3,9.39-1.55,12.75-4.76.82-.8,1-2.36-.22-2.89a3.74,3.74,0,0,0-1.75-.68Z"/><path id="path4757-7" d="M488.22,189.46c0,4.1-1.61,7.43-3.59,7.43s-3.58-3.33-3.58-7.43,1.6-7.42,3.58-7.42S488.22,185.36,488.22,189.46Z"/><path id="path4759" class="cls-58" d="M487.76,189.46c0,3.58-1.4,6.48-3.13,6.48s-3.13-2.9-3.13-6.48,1.4-6.48,3.13-6.48S487.76,185.88,487.76,189.46Z"/><path id="path4761-9" class="cls-9" d="M485.1,187.11c0,1.79-.7,3.24-1.56,3.24S482,188.9,482,187.11s.7-3.24,1.57-3.24S485.1,185.32,485.1,187.11Z"/><path id="path4763" d="M474.2,190.6c0,3.73-1.19,6.76-2.65,6.76s-2.65-3-2.65-6.76,1.19-6.76,2.65-6.76S474.2,186.86,474.2,190.6Z"/><path id="path4765-0" class="cls-59" d="M473.86,190.6c0,3.26-1,5.9-2.31,5.9s-2.31-2.64-2.31-5.9,1-5.9,2.31-5.9S473.86,187.34,473.86,190.6Z"/><path id="path4767" class="cls-9" d="M471.89,188.46c0,1.63-.51,2.95-1.15,2.95s-1.15-1.32-1.15-2.95.51-3,1.15-3S471.89,186.83,471.89,188.46Z"/><path id="path4769-3" d="M493.94,197.51s8.45-5.79,9.11-11.25c-1.05-.83-5.95-.88-5.95-.88s5.54-3.66,10.19-1c3.68,2.1,2.11,7.31,2.11,7.31s-1.33-3.32-2.83-3.82c-3.71,8.14-12.63,9.64-12.63,9.64Z"/><path id="path4771" d="M522,169.56a8.26,8.26,0,1,0,8.66,7.84,8.11,8.11,0,0,0-.37-2.07A8.3,8.3,0,0,0,522,169.56Z"/><path id="path4773-5" class="cls-42" d="M529.9,177.81a7.51,7.51,0,1,1-7.51-7.51,7.51,7.51,0,0,1,7.51,7.51Z"/><path id="path4775" class="cls-60" d="M529.06,177.81a6.68,6.68,0,1,1-6.69-6.67h0A6.67,6.67,0,0,1,529.06,177.81Z"/><path id="path4777-3" d="M524.19,175.43c-2,.17-2.34,2.69-1.76,4.22.58,2.32,2.87,3.54,4.19,5.41,2.74,3,5.48,6,8.2,9.06,2.68-.08,6,.07,7.83-2.31.78-1.07.65-2.94-.74-3.42-5.18-4.09-10.08-8.57-15.43-12.41a4.16,4.16,0,0,0-2.29-.55Z"/><path id="path4779" class="cls-42" d="M527,177.34l15.21,12.47a2.54,2.54,0,0,1-1.72,2.66,16,16,0,0,1-5.32.77l-11.63-12.82s-1.17-3,0-3.88,3.41.8,3.41.8Z"/><path id="path4781-6" class="cls-61" d="M524.37,177.18c-.91.28-.38,1.74-.14,2.36.73,1.84,2.63,2.87,3.78,4.45l7.59,8.36c1.91-.16,4.49-.4,5.68-2.2-6.7-5.05-11.17-9.41-15.67-12.65a1.54,1.54,0,0,0-1.24-.32Z"/><path id="path4783" class="cls-62" d="M492.12,274.91c2.27,8.65,12,11.2,12,11.2,1.17,8.75-3.1,9.64-3.1,9.64s13.91-3.83,17.51-16.57-5-20.66-8.59-23a22.08,22.08,0,0,0-7-3L496,258.35s-6.15,7.92-3.88,16.57Z"/><path id="path4785-6" class="cls-63" d="M502.78,251.84a1,1,0,0,0-.33.06c-3.29,2.79-7.68,4.64-9.46,8.81-3,5.52-3.89,12.72-.58,18.27a19.52,19.52,0,0,0,10.51,8.11c.25,2.58.29,6-2.28,7.46a8.16,8.16,0,0,0-2,2.22c3.77.87,7.11-1.55,10.25-3.24,7.32-4.49,12.46-12.9,11.78-21.68a22.47,22.47,0,0,0-16.29-19.62,9.21,9.21,0,0,0-1.63-.39Zm.15,1.35a22.3,22.3,0,0,1,7,3c3.6,2.33,12.19,10.25,8.59,23-3.35,11.86-15.62,16-17.3,16.5.82-.3,3.91-2,2.9-9.57,0,0-9.76-2.56-12-11.2S496,258.35,496,258.35Z"/><path id="path4787" class="cls-64" d="M500.5,258.39s-4.69,7.76-1.44,12.76,4.77,4.45,7.91,7.64c1.72,1.75,1.53,5.11,1.53,5.11s4.21-3.31,4.46-13-5.06-14.62-5.66-14.5-6.8,2-6.8,2Z"/></g><g id="g5597"><g id="g5587"><g id="g4971"><g class="cls-65"><g id="g4973"><path id="path4979" class="cls-66" d="M761.31,430.28H222.69V310.65H761.31Z"/></g></g></g><path id="path4995" class="cls-66" d="M211.57,387.66v82.77h-108l36.08-41.38L97.77,393Z"/><path id="path4999" class="cls-66" d="M772.43,387.66v82.77h108l-36.08-41.38,41.84-36Z"/></g></g><g id="g7512"><path id="path5039" class="cls-67" d="M409.28,628.85H574.72"/><g id="text5043"><text class="cls-68" transform="translate(461.82 651.44)">Signature</text></g><g id="g5045"><g class="cls-69"><g id="g5047"><g id="g5053"><path id="path5055" d="M453.27,622.94c-2.35,5.3-9.86,9.82-13.51,3.06-2.75-5.07,1.46-10.46,5.16-13.58s9.27-4.13,12.29-1.26a89,89,0,0,1-3.94,11.78M554,601.48c-10.17.38-20.33,1.38-30.5,1.91q-15.78.83-31.56,1T460.43,604L468,578.64a24.84,24.84,0,0,0,2-6.57.44.44,0,0,0-.38-.51.45.45,0,0,0-.48.27l-2,6.72a26.37,26.37,0,0,1-21.71,15.2c-.45,0-.45.72,0,.7a27,27,0,0,0,20.5-12q-3.27,10.75-6.55,21.49c-10.16-.33-20.32-.82-30.47-1.4a.38.38,0,0,0,0,.75c10,1,20,1.57,30.07,2-.11.37-.23.75-.34,1.13-.32,1-.62,2.09-.93,3.15-2.38-1.74-5.92-1.83-8.68-.93-7.56,2.48-16,13.9-8.24,20.63,3.13,2.73,7.55,1.27,10.36-1.09,4.31-3.62,5.35-10.79,6.86-15.85l.06-.22a8.42,8.42,0,0,1,1.36,4c.28,3,0,8.08,3.58,9.47,2.3.89,5.38-.09,5.42-2.87,0-.53-.85-.67-.94-.13-.29,1.82-2.09,2.25-3.63,1.92-1.77-.38-2.44-2.63-2.78-4.12-.64-2.73-.19-5.49-1.25-8.16a6.41,6.41,0,0,0-1.23-1.93l1.5-5c10.63.39,21.27.51,31.9.42s21.05-.42,31.56-1c10.18-.52,20.5-1,30.6-2.57.43-.06.32-.76-.1-.75"/></g><g id="g5057"><path id="path5059" d="M522.8,618.19c-8.27,6-19.84,4.4-24.7-5.05a.59.59,0,0,0-.81-.19.58.58,0,0,0-.19.19,31.49,31.49,0,0,1-10.09,9.4c.1-2.06.2-4.12.32-6.19a.47.47,0,0,0-.47-.47.48.48,0,0,0-.24.07l-3.11,1.72-1.56.86-1.42.68c-1.57-.06-2.4-.31-2.48-.74a13.32,13.32,0,0,0,1-1.12.59.59,0,0,0,0-.83.6.6,0,0,0-.39-.17A1.78,1.78,0,0,0,477,618c-1.94,1.9-4.67,3.58-6.52.58a3.76,3.76,0,0,1-.49-2.7l3.45-5.57a.44.44,0,0,0-.17-.6.45.45,0,0,0-.52.07c-1.67,1.79-3.35,3.89-3.7,6.17l-3.38,5.67a.33.33,0,0,0,.16.44.34.34,0,0,0,.4-.1l2.8-4.52a5.8,5.8,0,0,0,.77,2.24c1.83,3.12,5.06,1.58,7.38-.35a2,2,0,0,0,.4.59c2.13,2.13,6.45-1.09,8.78-2.64q-.18,3.13-.42,6.25a.54.54,0,0,0,.55.53.72.72,0,0,0,.25-.07,31.08,31.08,0,0,0,10.83-9.45c5.24,9.07,17.88,12,25.76,4.31.32-.31-.1-.9-.48-.63"/></g></g></g></g></g><path id="path4688" class="cls-70" d="M120,556.47l13,19.84c-11.91,1.16-23.88,3.9-19.49,10.59l17.21,26.26c7,10.68,15.27-4.66,18.62-11.92l14.37,21.93,73.3-46.9-14.37-21.92C219.29,561.6,211,577,204,566.26L186.81,540c-4.38-6.68,7.59-9.43,19.49-10.58l-13-19.84L120,556.48Z"/><path id="path4688-4" class="cls-71" d="M801.07,504.81l-11.48,20.76c-6.57-10-14.58-19.3-18.45-12.3l-15.2,27.47c-6.18,11.18,11.25,11.34,19.23,10.91l-12.69,23,75.68,43,12.69-22.94c-8,.42-25.41.27-19.23-10.91l15.2-27.48c3.86-7,11.88,2.31,18.45,12.31l11.48-20.76-75.68-43Z"/><path id="path4688-1" class="cls-72" d="M427.88,494.47l-6.54-10.17c6.07-.54,12.19-1.88,10-5.31l-8.66-13.46c-3.52-5.48-7.81,2.3-9.55,6l-7.22-11.24-37.59,23.57,7.23,11.25c1.74-3.69,6-11.47,9.55-6l8.65,13.46c2.2,3.43-3.91,4.78-10,5.31L390.29,518l37.59-23.57Z"/><path id="path4688-1-9" class="cls-73" d="M563.11,490l9,8c-5.71,2.15-11.23,5.09-8.19,7.8l12,10.64c4.86,4.33,6.9-4.32,7.58-8.33l10,8.89,29.87-32.81-10-8.89c-.69,4-2.72,12.67-7.59,8.34L593.83,473c-3-2.71,2.48-5.65,8.19-7.79l-9-8Z"/></g><text class="cls-74" transform="translate(237.01 384.76)">Programmeur Intermédiaire</text></svg>